<?xml version="1.0" standalone="no"?>
<!DOCTYPE svg PUBLIC "-//W3C//DTD SVG 1.1//EN" "http://www.w3.org/Graphics/SVG/1.1/DTD/svg11.dtd">
<svg version="1.1" xmlns="http://www.w3.org/2000/svg" viewBox="0 0 2640.5176798474276 771.1111111111095" width="7921.553039542283" height="2313.3333333333285"><!-- svg-source:excalidraw --><metadata></metadata><defs><style class="style-fonts">
      </style></defs><g stroke-linecap="round" transform="translate(10 10) rotate(0 1310.2588399237138 375.55555555555475)"><path d="M0.85 3.58 L2622.09 0.27 L2616.79 748.23 L-0.52 753.08" stroke="none" stroke-width="0" fill="#e03131"></path><path d="M-0.28 -0.76 C921.98 12.86, 1841.28 12.74, 2619.44 0.05 M0.08 0.01 C666.95 16.12, 1335 15.96, 2620.48 -0.3 M2619.59 0.82 C2621.85 248.42, 2620.57 493.67, 2620.3 750.82 M2620.17 0.14 C2616.58 174.37, 2615.49 348.96, 2621.02 750.89 M2622.11 751.83 C1987.07 762.42, 1354.34 761.39, -0.51 752.07 M2620.47 751.42 C1606.85 764.93, 593.09 765.63, 0.39 751.7 M-0.69 751.14 C-4.33 467.93, -2.64 182.71, -1.03 -1.49 M-0.41 751.45 C4.31 536.97, 3.87 321.01, 0.29 -0.59" stroke="#e03131" stroke-width="4" fill="none"></path></g><g stroke-linecap="round" transform="translate(104.43732915758301 99.99869539448264) rotate(359.03294700559456 39.047619047618355 281.269841269841)"><path d="M1.57 0.27 L74.37 -2.89 L77.58 564.5 L-3.93 562.62" stroke="none" stroke-width="0" fill="#ffffff"></path><path d="M2.36 1.13 C16.81 1.58, 34.91 0.86, 76.29 -0.74 M-1.95 1.45 C16.47 1.02, 35.19 -0.77, 78.68 0.48 M77.97 1.02 C74.07 176.81, 75.25 355.6, 77.02 561.38 M78.53 -0.36 C75.46 164.25, 76.62 329.25, 77.63 562.71 M76.17 564.7 C48.71 562.82, 22.17 565.63, 3.47 565.81 M77.5 562.51 C48.09 564.85, 21.9 564.63, 1.57 563.78 M-0.6 563.57 C3.04 364.12, 0.91 164.18, -0.23 -1.24 M-0.35 563.16 C1.53 344.18, 2.6 126.38, 0.17 0.72" stroke="#ffffff" stroke-width="2" fill="none"></path></g><g stroke-linecap="round" transform="translate(204.25679051299812 -4.195488481876964) rotate(91.58614968841856 39.047619047618355 153.59024325280734)"><path d="M-3.72 -2.89 L77.58 1.97 L74.16 307.26 L1.77 304.78" stroke="none" stroke-width="0" fill="#ffffff"></path><path d="M-1.99 0.83 C17 -0.33, 37.58 -1.18, 75.13 0.42 M-1.17 1.04 C23.46 -1.88, 47.69 -0.65, 78.42 -1.17 M75.56 -2.04 C77.35 107.45, 75.8 213.86, 77.89 305.91 M76.91 -0.89 C81.42 97.18, 79.66 195.47, 78.81 308.61 M76.03 306.77 C49.89 310.42, 27.72 311.29, 2.64 306.95 M76.67 308.88 C52.6 308.64, 26.73 308.4, 1.05 306.32 M1.98 307.21 C-0.19 211.85, 1.25 119.66, 2.51 -1.48 M-1.42 306.15 C2.46 200.85, 2.24 97.92, 0.57 0.1" stroke="#ffffff" stroke-width="2" fill="none"></path></g><g stroke-linecap="round" transform="translate(181.582014256408 321.28779016459157) rotate(89.63737332603682 39.047619047618355 122.08702385945799)"><path d="M-0.52 1.97 L74.16 0.08 L79.87 241.78 L3.69 245.24" stroke="none" stroke-width="0" fill="#ffffff"></path><path d="M-2.7 0.11 C23.83 -1.06, 48.31 0.1, 78.16 -3.9 M-0.09 -0.75 C29.69 -0.33, 58.53 -1.98, 79.13 -0.16 M77.64 -0.61 C72.33 86.46, 74.32 176.28, 78.68 245.97 M79.14 -0.46 C73.81 62.67, 75.6 126.26, 78.83 243.38 M76.81 246.56 C53.91 247.28, 25.43 243.78, 1.56 242.98 M79.06 245.65 C56.35 246.75, 32.52 244.64, 0.03 243.43 M-2.12 241.09 C-3.23 152.71, 0.12 64.67, 1.41 -1.44 M0.6 242.96 C4.32 153.33, 4.62 59.63, -1.54 -1.19" stroke="#ffffff" stroke-width="2" fill="none"></path></g><g stroke-linecap="round" transform="translate(460.3756455249968 93.36629444260689) rotate(359.9361363466809 39.047619047618355 281.269841269841)"><path d="M-3.93 0.08 L79.87 -2.4 L81.79 563.61 L-3.21 559.44" stroke="none" stroke-width="0" fill="#ffffff"></path><path d="M-1.81 -0.74 C22.09 0.38, 50.17 -3.94, 81 -2.34 M0.59 0.48 C27.82 -0.58, 56.03 0.43, 79.37 -1.76 M77.02 -1.16 C77.36 128.2, 77.75 258.68, 77.38 561.23 M77.63 0.17 C81.34 134.86, 81.3 267.74, 78.53 562.13 M81.56 565.81 C58.11 563.24, 34.41 562.28, -0.06 559.69 M79.66 563.78 C49.07 562.83, 17.97 562.95, 1.28 563.91 M-0.23 561.3 C4.28 392.45, 3.57 223.31, 1.25 -1.58 M0.17 563.26 C-1.31 434, -2.37 304.77, -0.1 0.39" stroke="#ffffff" stroke-width="2" fill="none"></path></g><g stroke-linecap="round" transform="translate(560.6810097350462 502.9126356280285) rotate(88.48849463239253 39.047619047618355 123.9967135341758)"><path d="M1.77 -2.4 L81.79 1.07 L74.88 244.89 L-3.62 250.91" stroke="none" stroke-width="0" fill="#ffffff"></path><path d="M-2.97 0.42 C23.71 -3.61, 50.21 -2.05, 80.18 -0.17 M0.33 -1.17 C21.54 -0.54, 42.3 -2.13, 76.68 -0.28 M77.86 -1.44 C75.93 71.62, 73.89 136.97, 76.07 250.07 M78.91 1.63 C76.45 66.72, 76.6 134.18, 77.93 247.47 M80.73 247.77 C51.56 248.08, 21.84 246.42, 3.41 249.93 M79.15 247.13 C48.93 248.22, 20.98 250.33, 0.02 246.71 M2.86 246.31 C1.97 195.31, 3.13 142.26, -2.34 1.19 M0.64 248.11 C-2.39 190.6, -1.08 136.38, -1.61 0.03" stroke="#ffffff" stroke-width="2" fill="none"></path></g><g stroke-linecap="round" transform="translate(785.4664186623922 352.0811632509649) rotate(0 39.047619047618355 154.7535323800621)"><path d="M2.13 -3.27 L76.83 -2.7 L79.74 311.91 L-2.79 311.06" stroke="none" stroke-width="0" fill="#ffffff"></path><path d="M3.47 3.27 C25.26 -1.16, 46.8 -2.12, 78.04 -2.85 M1.57 1.24 C31.13 -2.02, 60.19 -1.9, 79.38 1.37 M77.69 -2.22 C77.75 91.65, 76.47 185.01, 80.34 306.68 M78.4 1.29 C80.26 70.85, 78.37 140.47, 77.91 310.21 M75.7 313.2 C63.41 306.99, 43.5 306.58, 2.92 312.14 M79.67 307.8 C56.28 310.92, 33.88 308.84, -0.37 309.41 M-1.08 310.56 C-2.85 211.83, -2.73 117.19, 0.8 -0.24 M-1.08 309.18 C-2.48 195.73, -4.71 80.98, -1.32 -1.41" stroke="#ffffff" stroke-width="2" fill="none"></path></g><g stroke-linecap="round" transform="translate(862.6695267311188 110.31867889900604) rotate(207.41023736529985 39.047619047620174 159.23768811177433)"><path d="M-1.26 -2.7 L79.74 2.4 L75.3 320.03 L3.16 315.15" stroke="none" stroke-width="0" fill="#ffffff"></path><path d="M2.64 -0.23 C29.65 -2.47, 56.13 -4.12, 81.5 1.93 M1.05 -0.86 C29.23 -1.72, 59.68 0.4, 78.11 -1.28 M80.54 -1.45 C78.67 64.59, 79.66 128.87, 76.09 319.49 M78.65 0.1 C77.74 71.17, 78.86 145.06, 76.71 318.5 M79.16 315.26 C48.11 316.29, 27.24 322.55, -0.17 315.57 M79.37 320.38 C59.13 316.98, 35.85 317.04, 0.17 320.36 M1.29 316.34 C3.09 194.61, 2.47 73.1, 1.88 2.11 M0.83 318.26 C2.02 228.97, 2.07 140.85, 0.75 -1.15" stroke="#ffffff" stroke-width="2" fill="none"></path></g><g stroke-linecap="round" transform="translate(718.1144555181345 103.46494067121967) rotate(156.28101826301054 39.047619047620174 156.15906116022052)"><path d="M1.64 2.4 L75.3 1.56 L81.25 308.99 L1.08 309.87" stroke="none" stroke-width="0" fill="#ffffff"></path><path d="M1.56 -1.19 C29.75 -2.76, 63.03 2.02, 81.05 3.14 M0.03 -0.75 C29.56 2.04, 56.58 -0.61, 76.23 -0.28 M79.31 -1.24 C84.2 66.69, 79.94 140.02, 76 312.92 M76.77 -1.03 C79.66 122.37, 78.44 243.37, 78.73 311.46 M75 308.69 C50.38 313.7, 16.65 308.15, -1.28 315.47 M80.06 312.15 C60.94 313.71, 44.71 315.69, 1.7 311.57 M1.43 311 C-1.25 206.96, -0.14 104.21, -0.66 -2.15 M-1.37 310.92 C-3.93 224.38, -1.86 138.09, -0.45 -0.96" stroke="#ffffff" stroke-width="2" fill="none"></path></g><g stroke-linecap="round" transform="translate(1314.2740825135297 93.36629444261052) rotate(359.9361363466809 39.047619047618355 281.269841269841)"><path d="M-2.79 1.56 L81.25 -3.33 L79.17 560.09 L-3.1 563.93" stroke="none" stroke-width="0" fill="#ffffff"></path><path d="M-0.06 -2.85 C26.39 2.4, 48.92 3.6, 80.58 2.11 M1.28 1.37 C20.08 -0.7, 38.26 0.3, 76.55 1.74 M79.35 -1.58 C78.88 140.4, 78.84 279.97, 79.53 563.17 M77.99 0.39 C73.12 172.64, 74.26 344.77, 78.83 562.75 M81.01 565.17 C60.76 558.22, 42.5 564.27, -3.41 565.1 M77.72 562.44 C47.38 564.29, 18.02 561.66, 0.73 563.46 M0.45 562.41 C-1.19 437.75, -2.64 309.36, -0.37 0.94 M-0.74 561.75 C4.75 401.63, 4.07 241.49, 0.33 0.48" stroke="#ffffff" stroke-width="2" fill="none"></path></g><g stroke-linecap="round" transform="translate(1414.5794467235792 502.9126356280249) rotate(88.48849463239253 39.047619047618355 123.9967135341758)"><path d="M3.16 -3.33 L79.17 -2.45 L75 249.38 L1.44 244.25" stroke="none" stroke-width="0" fill="#ffffff"></path><path d="M3.41 1.93 C24.06 4.25, 44.7 3.22, 76.37 0.06 M0.02 -1.28 C18.64 -1.35, 39.47 0.67, 77.07 0.85 M75.75 1.19 C78.87 64.27, 84.21 128.44, 78.32 244.94 M76.48 0.03 C78.29 55.53, 79.08 113.46, 76.78 246.72 M77.92 245.08 C60.46 252.17, 41.98 251.58, 3.82 251.93 M78.27 249.87 C57.01 247.16, 33.27 248.83, -1.52 249 M2.19 250.45 C-1.9 182.6, -1.89 124.07, -0.5 -3.15 M0.87 246.65 C3.23 196.85, 4.42 148.9, -1.15 0.64" stroke="#ffffff" stroke-width="2" fill="none"></path></g><g stroke-linecap="round" transform="translate(1630.618666776525 99.99869539448264) rotate(1.533055768691366 39.047619047618355 281.269841269841)"><path d="M1.08 -2.45 L75 1.39 L79.54 558.79 L2.85 559.17" stroke="none" stroke-width="0" fill="#ffffff"></path><path d="M2.96 3.14 C20.36 1.36, 34.02 -0.69, 76.6 2.56 M-1.87 -0.28 C27.23 2.74, 56.53 1.86, 77.22 1.56 M76.92 0.34 C76.32 114.01, 74.99 225.27, 76.94 562.33 M78.45 -0.48 C74.41 196.61, 73.03 392.18, 77.37 563.12 M76.82 565.69 C46.12 563.96, 24.78 565.34, -0.33 561.79 M79.79 561.79 C55.79 564.93, 30.51 565.01, -0.93 563.1 M-0.37 561.34 C-3.38 399.42, -3.25 232.87, -1.57 -1.47 M-0.25 562 C-2.07 449.57, -2.95 335.95, 0.63 -0.67" stroke="#ffffff" stroke-width="2" fill="none"></path></g><g stroke-linecap="round" transform="translate(1945.757307117481 190.2872026807272) rotate(99.71339782956889 39.047619047618355 192.25653561204854)"><path d="M-3.1 1.39 L79.54 -3.74 L80.95 381.14 L3.16 383.39" stroke="none" stroke-width="0" fill="#ffffff"></path><path d="M2.48 2.11 C25.48 -1.16, 52.91 1.34, 80.83 0.04 M-1.55 1.74 C17.39 1.07, 35.97 1.78, 76.13 -1.43 M80.22 0.93 C74.92 127.05, 73.04 258.2, 79.26 382.18 M79.19 0.32 C79.16 115.2, 79.04 233.11, 78.87 384.46 M74.69 387.07 C64.17 389.68, 42.26 384.99, -0.2 384.85 M78.83 385.43 C45.8 384.93, 15.63 384.49, -0.17 385.85 M-0.54 385.91 C0.7 238.07, -1.27 94, -2.33 1.26 M0.49 385.22 C0.61 301.05, 2.38 215.68, 0.32 -0.72" stroke="#ffffff" stroke-width="2" fill="none"></path></g><g stroke-linecap="round" transform="translate(1783.4389273321358 252.73788310173768) rotate(175.72049889933623 39.047619047618355 71.43476187348642)"><path d="M1.44 -3.74 L80.95 -3.37 L81.25 141.75 L-1.27 143.61" stroke="none" stroke-width="0" fill="#ffffff"></path><path d="M-1.72 0.06 C28.06 1.74, 61.84 -0.79, 75.53 -3.73 M-1.03 0.85 C21.46 0.2, 42.69 -2.79, 78.82 -1.47 M78.37 -3.72 C77.77 45.38, 82.62 87.86, 78.17 144.64 M76.49 -1.55 C78.92 35.76, 82.05 68.51, 76.64 142.23 M81.91 146.8 C48.19 143.12, 18.74 144.21, 3.76 146.26 M76.57 143.88 C56.67 144.15, 36.93 144.93, 1.5 142.4 M-0.6 139.02 C-3.27 107.08, -3.28 80.78, -3.27 -1.26 M-1.4 143.65 C0.41 107.99, -0.63 75.22, -1.55 0.69" stroke="#ffffff" stroke-width="2" fill="none"></path></g><g stroke-linecap="round" transform="translate(1937.9100856202895 22.83879795739267) rotate(93.76784813353649 39.047619047618355 119.84511502514579)"><path d="M2.85 -3.37 L81.25 -1.12 L76.83 240.44 L0.81 236.57" stroke="none" stroke-width="0" fill="#ffffff"></path><path d="M-1.49 2.56 C30.29 0.01, 52.53 -3.76, 77.53 -3.1 M-0.87 1.56 C28.27 -2.1, 61.19 -2.13, 78.52 1.79 M75.69 -0.43 C80.01 78.05, 78.44 164.14, 76.1 242.77 M76.58 1.22 C75.98 78.23, 73.67 156.08, 79.41 238.27 M77.76 238.94 C49.47 241.57, 25.01 244.62, -1.5 241.15 M77.17 240.25 C50.91 241.81, 25.55 240.01, -1.5 239.23 M-3.28 236.62 C-2.67 155.45, -2.12 66.61, -2.25 1.37 M1.32 238.3 C3.24 152.37, 1.5 67.67, 0.6 -1.56" stroke="#ffffff" stroke-width="2" fill="none"></path></g><g stroke-linecap="round" transform="translate(1804.0971533954398 115.29014167390778) rotate(211.20800174050473 39.047619047618355 85.35372484249456)"><path d="M3.16 -1.12 L76.83 0.75 L78.91 167.59 L0 169.03" stroke="none" stroke-width="0" fill="#ffffff"></path><path d="M2.74 0.04 C20.99 -4.73, 46.54 -4.1, 81.58 -2.06 M-1.97 -1.43 C27.49 -2.69, 53.95 0.57, 78.88 0.14 M80.06 -3.93 C75.71 37.09, 73.23 74.34, 79.16 167.5 M79.41 -0.09 C73.55 37.35, 76.58 74.27, 79.37 172.62 M77.89 171.05 C50.74 173.81, 14.37 171.88, 1.84 167.67 M77.93 172.05 C52.24 170.68, 21.88 170.69, 1.18 170.4 M-3.93 172.84 C0.08 134.64, 0.65 102.75, 2.4 -2.79 M0.54 169.48 C-4.24 113.55, -1.97 53.13, 1.43 -1.68" stroke="#ffffff" stroke-width="2" fill="none"></path></g><g stroke-linecap="round" transform="translate(2083.9426660168647 117.89615932219385) rotate(134.1441086767367 39.047619047618355 70.46254915289501)"><path d="M-1.27 0.75 L78.91 -3.12 L78.1 139.25 L2.76 144.91" stroke="none" stroke-width="0" fill="#ffffff"></path><path d="M-2.57 -3.73 C27.87 -3.11, 60.35 -2.07, 79.8 -1.75 M0.72 -1.47 C29.95 2.91, 59.85 1.25, 76.23 -1.44 M78.17 1.77 C77.08 44.14, 80.55 77.69, 75 137.3 M76.64 -0.64 C81.52 50.86, 81.23 107.03, 80.06 140.76 M81.86 144.32 C54.62 142.52, 36 138.02, 2.01 139.07 M79.59 140.46 C50.97 141.51, 28.03 141.67, -1.92 138.96 M-3.27 139.66 C0.07 113.26, 5.17 79.52, 1.56 3.16 M-1.55 141.62 C-0.04 108.49, 0.67 78.12, 1.58 -0.56" stroke="#ffffff" stroke-width="2" fill="none"></path></g><g stroke-linecap="round" transform="translate(2110.291151033427 366.86152363291694) rotate(175.72049889933623 39.047619047618355 95.87532247306444)"><path d="M0.81 -3.12 L78.1 -1.68 L80.85 195.74 L3.9 187.95" stroke="none" stroke-width="0" fill="#ffffff"></path><path d="M-0.56 -3.1 C26.98 -0.6, 48.71 -0.29, 81.22 -3.94 M0.42 1.79 C18.64 1.28, 33.84 -0.3, 77.84 0.98 M75.7 3.69 C79.24 35.46, 75.07 73.72, 81.01 194.38 M79.67 -1.7 C76.59 58.6, 77.27 113.22, 77.72 191.65 M76.59 193.21 C55.84 190.03, 31.92 191.23, 1.12 191.42 M76.59 191.29 C50.62 191.08, 18.87 189.42, -1.84 189.78 M-2.7 193.39 C5.54 121.22, 4.69 59.44, -3.33 1.08 M0.72 189.88 C4.39 144.27, 4.55 99.6, -0.63 0.37" stroke="#ffffff" stroke-width="2" fill="none"></path></g><g stroke-linecap="round" transform="translate(1961.7563353097612 508.296054760056) rotate(93.76784813353649 39.047619047618355 112.06816014828473)"><path d="M0 -1.68 L80.85 3.99 L81.99 220.33 L-0.91 224.29" stroke="none" stroke-width="0" fill="#ffffff"></path><path d="M3.49 -2.06 C17.85 -0.54, 35.4 -2.73, 75.24 1.45 M0.79 0.14 C15.84 -2.84, 35.14 -0.42, 76.13 0.04 M79.01 -2.76 C73.12 74.05, 78.29 156.59, 77.95 221.64 M79.2 1.64 C82.82 59.94, 80.81 120.08, 78.24 225.75 M79.94 221.09 C50.05 222.86, 19.1 224.37, 2.68 227.13 M79.27 223.83 C54.56 221.81, 33.04 221.81, 1.06 222.5 M2.06 221.73 C3.94 166.69, -0.26 104.75, -2.1 -2.66 M1.23 222.69 C-0.03 148.64, -1.94 74.43, 0.35 -1.34" stroke="#ffffff" stroke-width="2" fill="none"></path></g><g stroke-linecap="round" transform="translate(2075.808415007221 519.5096017914002) rotate(211.20800174050473 39.047619047618355 62.19288439159027)"><path d="M2.76 3.99 L81.99 -3.8 L77.19 124.54 L-2.62 123.85" stroke="none" stroke-width="0" fill="#ffffff"></path><path d="M1.71 -1.75 C20.5 -3.13, 31.9 2.25, 75.16 0.85 M-1.86 -1.44 C30.16 0.88, 58.88 -0.07, 78.98 -1.2 M75 -3.62 C81.68 51.43, 78.59 94.69, 76.82 127.53 M80.06 -0.17 C79.31 26.62, 79.86 55.33, 79.79 123.63 M80.11 122.54 C52.93 122.86, 28.2 126.2, -0.93 121.38 M76.17 122.42 C54.62 122.18, 35.88 122.51, -0.63 123.04 M1.56 127.54 C-4.82 83.05, -3.94 36.46, 1.39 1.44 M1.58 123.82 C-2.41 99.09, -1.37 71.49, 0 -0.84" stroke="#ffffff" stroke-width="2" fill="none"></path></g><g stroke-linecap="round" transform="translate(1810.5252468101935 502.63226524339916) rotate(134.1441086767367 39.047619047618355 74.03232531046342)"><path d="M3.9 -3.8 L77.19 0.15 L75.48 147.53 L1.66 151.67" stroke="none" stroke-width="0" fill="#ffffff"></path><path d="M3.12 -3.94 C16.55 2.13, 35.89 1.53, 81.68 1.57 M-0.26 0.98 C22 1.17, 48.82 -0.07, 79.94 0.53 M81.01 2.63 C75.63 29.62, 74.52 68.21, 74.69 150.62 M77.72 -0.1 C81.18 60.44, 82.71 116.36, 78.83 148.99 M79.22 147.73 C63.28 150.34, 42.18 144.33, -0.92 150.42 M76.25 146.1 C56.91 144.9, 32.97 145.18, 0.82 149.27 M-3.33 149.14 C-3.6 110.89, 0.23 81.35, -3.74 2.85 M-0.63 148.44 C-1.93 114.56, -2.34 83.33, 1.38 1.99" stroke="#ffffff" stroke-width="2" fill="none"></path></g><g stroke-linecap="round" transform="translate(2377.5042263622854 99.99869539448264) rotate(0 39.047619047618355 281.269841269841)"><path d="M-0.91 0.15 L75.48 -0.54 L79.76 566.14 L-2.81 566" stroke="none" stroke-width="0" fill="#ffffff"></path><path d="M-2.86 1.45 C17.09 2.39, 43.62 3.11, 78.37 -3.72 M-1.97 0.04 C18.68 -1.97, 37.44 -0.23, 76.49 -1.55 M78.03 -1.16 C80.87 119.06, 80.02 236.62, 79.62 564.11 M78.16 0.75 C77.93 163.78, 77.55 328.52, 77.49 562.94 M80.77 565.54 C57.35 559.4, 37.55 564.76, -0.6 558.69 M79.16 560.9 C61.71 559.65, 47.4 562.2, -1.4 563.32 M-0.98 561.3 C4.3 349.95, 2.24 137.35, -1.35 1.26 M0.16 561.92 C1.43 409.25, 1.98 257.42, 0.78 -0.76" stroke="#ffffff" stroke-width="2" fill="none"></path></g><g stroke-linecap="round" transform="translate(2372.1315872071536 -11.995367182586051) rotate(89.63737332603682 39.047619047618355 164.02183797056205)"><path d="M-2.62 -0.54 L79.76 3.6 L75.28 331.5 L-3.93 326.84" stroke="none" stroke-width="0" fill="#ffffff"></path><path d="M-2.93 0.85 C19.32 1.01, 31.75 -4.29, 75.21 -0.52 M0.89 -1.2 C29.11 0.5, 52.92 -1.58, 76.28 1.46 M77.22 2.16 C75.56 121.75, 80.52 242.7, 77.87 327.53 M79.26 -0.52 C78.98 97.38, 77.44 194.19, 77.46 328.43 M77.16 325.03 C54.4 331.57, 31.94 325.37, -3.93 324.36 M77.46 326.69 C63.17 327.97, 45.2 327.55, 1.58 326.38 M0.95 329.04 C0.18 222.76, 0.44 115.73, -0.77 -0.87 M0 327.47 C0.03 224.89, 0.42 117.69, -0.31 0.05" stroke="#ffffff" stroke-width="2" fill="none"></path></g><g stroke-linecap="round" transform="translate(1103.6973452597485 285.25799474777887) rotate(89.63737332603682 39.047619047618355 96.01054191654475)"><path d="M1.26 3.08 L78.12 3.09 L75.51 193.34 L-1.33 192.65" stroke="none" stroke-width="0" fill="#ffffff"></path><path d="M-1.59 3.81 C23.5 -2.88, 36.55 0.7, 76.51 3.2 M-0.09 1.73 C18.94 2.62, 34.4 -0.04, 79.34 0.96 M80.22 -1.64 C73.79 65.42, 77.75 130.46, 74.46 190.42 M78.79 -0.54 C79.1 44.72, 80.56 86.97, 78.38 192.11 M78.47 190.82 C43.71 187.28, 17.95 189.25, 0.72 193.8 M78.14 193.05 C53.93 190.85, 27.18 190.13, 1.18 191.64 M-2.97 194.89 C-2.65 126.5, 0.56 67.61, 1.1 -0.44 M-0.35 193.38 C-5.47 122.43, -4.79 54.27, 1.1 1.89" stroke="#ffffff" stroke-width="2" fill="none"></path></g></svg>