<?xml version="1.0" standalone="no"?>
<!DOCTYPE svg PUBLIC "-//W3C//DTD SVG 1.1//EN" "http://www.w3.org/Graphics/SVG/1.1/DTD/svg11.dtd">
<svg version="1.1" xmlns="http://www.w3.org/2000/svg" viewBox="0 0 1919.2367304713953 3096.8434233884486" width="1919.2367304713953" height="3096.8434233884486"><!-- svg-source:excalidraw --><metadata></metadata><defs><style class="style-fonts">
      </style></defs><g stroke-linecap="round"><g transform="translate(991.9026080696694 572.9300859226314) rotate(358.54448023765906 -275.0718541782462 1234.1189375898284)" fill-rule="evenodd"><path d="M-0.5 2.39 L-24.75 7.78 L-55.39 93.96 L-57.73 381.4 L-109.59 408.91 L-111.39 380.21 L-177.79 397.48 L-189.88 435.76 L-493.35 540.64 L-505.14 581.17 L-493.87 599.18 L-553.4 2435.69 L-504.44 2464.59 L-483.78 579.7 L-281.39 558.82 L-266.39 573.19 L-251.99 558.8 L-202.35 547.88 L-176.8 561.45 L-162.27 546.73 L-142.28 546.9 L-66.54 562.06 L-63.23 762.14 L-48.94 830.29 L-218.57 900.28 L-215.9 938.16 L-199.28 925.92 L-33.56 903.76 L-6.41 918.45 L-0.86 2.95" stroke="none" stroke-width="0" fill="#e03131" fill-rule="evenodd"></path><path d="M-1.21 1.11 C-9.97 1.69, -13.8 6.15, -26.15 13.54 M-0.8 -0.55 C-10.01 3.73, -16.89 8.38, -22.84 10.93 M-26.89 11.49 C-35.53 38.72, -39.18 64.98, -53.4 92.2 M-23.59 8.58 C-29.8 28.56, -34.64 42.63, -51.92 91.54 M-52.79 96.29 C-56.59 170.47, -56.65 248.57, -56.7 379.51 M-51.68 93.74 C-53.15 171.77, -56.78 249.71, -58.93 381.89 M-55.97 383.14 C-72.64 392.98, -92.74 401.02, -104.92 407.13 M-56.75 381.89 C-74.64 389.77, -92.37 398.8, -106.06 405.03 M-108.7 405.39 C-106.69 399.17, -108.35 391.06, -108.85 381.14 M-106.65 406.08 C-108.6 398.88, -112.22 387.37, -111.47 381.72 M-111.93 382.05 C-133.55 388.42, -156.68 389.14, -176.73 397.52 M-111.35 382.03 C-125.48 381.37, -143.65 387.9, -178.3 392.88 M-178.55 397.81 C-184.04 404.25, -186.41 416.51, -191.7 436.86 M-178.24 395.7 C-183.25 408.93, -183.51 418.27, -188.68 435.57 M-186.19 434.05 C-303.32 471.44, -422.19 511.42, -493.64 537.46 M-187.98 434.36 C-280.48 462.97, -372.28 493.79, -495.57 539.28 M-492.95 541.94 C-498.97 548.59, -499.82 566.78, -507.03 583.22 M-496.28 539.69 C-495.23 554.65, -501.78 567.37, -503.1 583.03 M-507.14 579.18 C-503.86 584.29, -498.11 588.52, -493.48 597.45 M-504.4 580.1 C-500.06 585.95, -498.56 590.74, -492.91 596.41 M-495.66 596.85 C-501.47 1188.41, -518.79 1779.08, -550.48 2439.38 M-494.1 596.05 C-505.25 1017.72, -516.87 1439.57, -549.14 2438.32 M-550.63 2438.88 C-535.74 2448.96, -515.07 2458.45, -505.98 2465.05 M-550.43 2440.75 C-531.06 2449.07, -514.84 2463.08, -505.69 2466.35 M-503.99 2467.74 C-488.51 2082.57, -484.3 1699.24, -484.98 577.63 M-505.2 2468.79 C-510.46 1866.33, -505.31 1263.23, -485.06 578.44 M-481.03 577.75 C-420.89 569.08, -359.3 561.03, -285.24 558.48 M-485.81 577.97 C-404.86 573.14, -324.39 565.71, -281.59 561.7 M-285 563.93 C-280.98 563.34, -275.97 568.46, -268.36 572.37 M-281.85 559.78 C-275.32 564.81, -269.32 568.6, -267.29 572.18 M-263.51 567.88 C-262.28 564.62, -255.67 564.18, -252.53 556.1 M-265.52 571.9 C-261.58 564.98, -258.07 561.35, -254.04 557.38 M-255.45 561.49 C-238.74 555.04, -220.95 550.3, -200.8 546.62 M-255.32 557.43 C-242.48 554.48, -226.54 554.51, -202.49 548.39 M-197.37 547.35 C-196.28 551.98, -182.96 554.79, -176.7 560.79 M-201.77 548.42 C-198.02 550.97, -190.39 555.77, -179.49 559.82 M-183.26 556.71 C-172.63 556.92, -170.7 546.88, -163.54 545.39 M-181.61 562.36 C-173.47 557.14, -171.85 552.64, -163.71 547.69 M-162.19 549.4 C-154.67 543.83, -149.8 544, -135.33 547.71 M-161.87 547.66 C-153.95 547.77, -144.77 546.7, -137.55 546.07 M-142.44 542.48 C-122.15 552.26, -104.47 554.26, -65.45 559.68 M-138.55 544.25 C-121.46 547.86, -101.96 551.86, -64.15 560.65 M-64.68 558.67 C-61.59 622.1, -64.54 677.94, -66.37 762.39 M-61.9 561.17 C-60.67 626.51, -60.57 689.74, -65.39 760.36 M-69.67 758.85 C-63.52 783.21, -55.15 804.1, -47.13 828.91 M-66.41 760.23 C-60.23 785.29, -56.11 810.07, -51.48 829.48 M-51.72 832.85 C-104.68 853.85, -161.21 885.1, -218.75 901.19 M-48.4 828.05 C-109.82 858.72, -172 884.24, -220.61 903.67 M-220.13 904.41 C-217.62 914.35, -220.28 930.1, -216.24 939.23 M-221.68 904.16 C-219.65 915.41, -216.76 927.52, -217.14 936.34 M-221.01 936.33 C-214.22 934.61, -211.73 929.4, -203.79 928.08 M-219.59 935.39 C-214.39 933.57, -210.69 932.5, -203 925.04 M-203.48 921.58 C-162.99 925.4, -118.18 914.66, -34.49 904.5 M-203.02 925.94 C-145.29 918.63, -86.82 910.77, -29.35 906.33 M-33.1 909.19 C-20.76 910.28, -14.79 914.46, -13.51 918.96 M-30.88 904.96 C-26.3 909.47, -21.39 916.07, -10.51 922.9 M-10.05 921.38 C-6.2 707.61, -5.18 496.09, 0.49 0.28 M-10.64 921.76 C-2.19 697.9, 0.33 474.06, -0.1 -0.05 M0 0 C0 0, 0 0, 0 0 M0 0 C0 0, 0 0, 0 0" stroke="#e03131" stroke-width="1" fill="none"></path></g></g><mask></mask><g stroke-linecap="round"><g transform="translate(934.6435987466466 571.9008778277653) rotate(0.9434234456618315 266.542092069345 1254.4509478360806)" fill-rule="evenodd"><path d="M-0.07 -2.67 L14.92 11.02 L45.74 92.31 L47.92 385.36 L101.55 404.71 L106.61 383.73 L171.56 396.31 L174.53 435.35 L486.39 539.32 L497.65 584 L483.79 593.32 L534.25 2468.01 L496 2510.79 L478.03 576.07 L273.9 562.33 L261.63 572.45 L247.12 555.04 L196.98 551.31 L174.02 559.66 L152.92 549.02 L128.47 544.71 L66.8 564.22 L63.5 756.2 L44.97 818.39 L214.75 905.85 L215.25 932.57 L193.17 922.46 L27.85 902.51 L4.88 924.78 L3.74 -2.87" stroke="none" stroke-width="0" fill="#e03131" fill-rule="evenodd"></path><path d="M-1.6 -2.39 C9.98 2.53, 12.43 11.29, 20.42 13.17 M-0.96 -0.04 C6.11 3.68, 11.43 6.32, 17.73 11.75 M14.27 13.23 C25.49 34.44, 30.12 50.75, 41.93 92.61 M18.52 11.83 C26.24 26.37, 30.92 43.43, 44.99 93.27 M43.24 92.95 C46.3 194.86, 50.31 292.99, 49.71 382.45 M46.48 94.27 C48.94 182.37, 50.82 268.03, 51.14 382.12 M52.14 384.63 C66.34 392.91, 88.56 399.81, 103.99 409.09 M51.76 381.36 C65.57 387.81, 77.63 393.64, 102.16 406.51 M103.25 407.67 C104.58 402.12, 106.22 393, 106.36 380.59 M100.96 406.93 C100.19 396.13, 103.77 390.67, 105.6 382.54 M106.12 383.9 C125.4 383.43, 146 391.16, 169.75 396.17 M106.73 379.02 C120.3 384.88, 138.14 384.87, 173.06 395.7 M170.73 391.31 C171.83 401.87, 170.36 419.88, 173.66 436.09 M171.42 396.57 C174.86 406.74, 173.79 422.3, 174.85 434.49 M175.3 434.02 C249.33 458.77, 325.14 482.27, 487.45 536.88 M174.26 434.72 C246.53 457.17, 317.06 481.16, 487.59 538.2 M486.85 535.81 C491.54 551.35, 489.47 561.84, 497.67 584.56 M489.24 541.17 C488.08 554.18, 493.88 568.53, 495.56 580.29 M494.99 580.55 C496.14 584.58, 493.5 589.06, 489.75 597.03 M497.38 580.49 C492.21 584.83, 492.14 591.45, 487.87 597.8 M487.05 596.65 C492.71 1193.1, 506.69 1791.91, 532.42 2472.01 M486.72 596 C514.74 1275.92, 531.78 1954.73, 533.92 2472.42 M531.62 2472.29 C522.7 2485.21, 504.46 2495.66, 498.6 2511.3 M534.69 2469.78 C525.71 2480.72, 517.15 2485.59, 493.29 2507.02 M493.97 2508.43 C477.1 1876.57, 472.06 1241.11, 477.71 579.02 M495.87 2509.38 C491.29 2008.09, 486.91 1507.89, 477.49 577.22 M477.94 576.92 C401.44 567.89, 324.26 562.98, 278.15 559.64 M477.65 578.37 C426.56 573.74, 373.32 570.5, 274.72 558.89 M271.22 559.99 C266.95 565.02, 263.24 567.37, 261.91 567.4 M275.26 560.57 C269.58 563.41, 262.63 567.99, 259.95 572.1 M257.68 569.76 C257.62 570.83, 255.69 562.43, 251.06 559.68 M258.42 570.15 C255.28 568.09, 254.03 563.55, 248.69 558.85 M247.08 557.83 C228.54 554.06, 211.65 549.91, 192.92 550.95 M246.48 557.35 C226.77 556.45, 204.85 549.87, 195.59 551.37 M190.93 548.01 C190.67 549.39, 185.85 555.66, 169.79 563 M192.22 548.33 C189.53 552.83, 183.73 554.17, 173.74 559.39 M173.65 561.82 C164.12 551.3, 161.08 548.28, 156.46 545.78 M173.89 560.68 C167.54 557.42, 165.76 555.13, 157.42 548.25 M157.22 544.59 C145.6 545.06, 144.01 548.71, 134.41 548.74 M157.07 548.37 C149.98 547.58, 144.1 547.08, 130.25 544.3 M129.85 546.57 C115.17 546.7, 101.44 547.94, 60.08 560.52 M131.25 544.11 C111.48 548.57, 87 552.95, 62.8 561.57 M65.7 562.16 C62.67 626.41, 62.41 698.87, 63.45 759.49 M63.43 561.78 C67.93 615.63, 67.8 670.9, 63.03 757.53 M59.46 756.52 C57.1 769.33, 55.93 784.69, 45.94 819.06 M64.43 756.22 C57.99 772.68, 51.77 789.52, 43.98 821.59 M44.26 818.86 C109.53 856.42, 179.28 882.26, 215.17 903.55 M44.7 823.69 C99.54 852.56, 154.08 878.24, 214.33 904.12 M214.46 902.25 C210.63 914.18, 213.77 923.39, 215.26 929.19 M212.8 902.93 C213.97 912.98, 212.26 924.84, 210.57 932.69 M211.89 932.61 C205.77 928.11, 200.5 930.22, 193.07 922.97 M211.63 931.41 C207.54 930.82, 202.78 927.84, 194.72 923.94 M191.79 927.76 C153.58 914.3, 112.64 911.4, 25.3 905.8 M195.93 924.82 C145.96 918.88, 94.47 915.1, 24.49 906.58 M27.6 904.91 C21.88 908.22, 11.09 911.31, 4.1 924.96 M23.2 905.37 C16.97 912.47, 12.24 916.47, 4.37 921.75 M7.11 920.85 C3.17 653.53, 1.96 383.08, -0.92 -1.06 M6.43 921.11 C8.86 725.28, 6.82 530.31, -0.66 -0.5 M0 0 C0 0, 0 0, 0 0 M0 0 C0 0, 0 0, 0 0" stroke="#e03131" stroke-width="1" fill="none"></path></g></g><mask></mask><g stroke-linecap="round" transform="translate(10 10) rotate(0 949.6183652356976 168.77997664485247)"><path d="M-0.49 2.21 L1901.45 2.36 L1902.21 340.61 L0.19 339.18" stroke="none" stroke-width="0" fill="#e03131"></path><path d="M1.22 -0.61 C621.92 10.33, 1246.18 10.2, 1898.85 -0.64 M0.54 0.28 C517.87 0.51, 1034.35 0.86, 1898.85 -0.44 M1900.46 2.26 C1895.15 109.34, 1893.08 219.75, 1896.74 339.02 M1900.58 -1.14 C1902.08 68.6, 1901.07 139.6, 1899.91 337.56 M1898.65 337.73 C1143.49 334.29, 386.02 335.88, 0.05 338.75 M1898.47 338.34 C1278.35 347.16, 658.87 347.31, 0.44 337.93 M-1.63 339.27 C-0.38 230.81, 0.32 124.82, -1.14 1.46 M1.12 337.06 C-1.94 244.11, -1.7 152.52, -0.57 -0.63" stroke="#e03131" stroke-width="4" fill="none"></path></g><g stroke-linecap="round" transform="translate(838.5432121042086 58.83447912843485) rotate(11.7881832991075 17.54855209409743 126.40664353959369)"><path d="M2.21 2.36 L38.07 3.05 L35.29 254.44 L-0.32 253.48" stroke="none" stroke-width="0" fill="#ffffff"></path><path d="M-1.47 3.09 C11.33 3.04, 15.89 -1.33, 33.99 -1.92 M1.84 0.48 C10.66 1.1, 19.93 -1.35, 35.62 -1.63 M34.6 -0.93 C33.97 93.15, 33.95 189.18, 32.07 254.43 M35.8 -1.46 C38.68 93.89, 40.02 187.83, 36.69 251.52 M36.61 248.98 C23.69 253.02, 14.97 255.85, 1.06 255.06 M33.65 252.14 C22.9 253.19, 10.58 254.43, 0.37 253.55 M1.55 253.82 C4.89 165.48, 1.11 74.02, -0.81 1.76 M0.63 252.12 C-2.53 190.33, -4.13 125.37, -0.2 0.9" stroke="#ffffff" stroke-width="2" fill="none"></path></g><g stroke-linecap="round" transform="translate(908.7641713222056 58.27271145468967) rotate(342.68835389115355 17.54855209409743 126.40664353959369)"><path d="M2.98 3.05 L35.29 1.62 L34.78 253.48 L0.36 253.2" stroke="none" stroke-width="0" fill="#ffffff"></path><path d="M2.9 2.77 C8.23 -2.14, 17.28 -2.47, 35.01 2.72 M0.21 1.35 C10.8 -1.27, 24.08 -1.79, 36.51 0.91 M32.1 -0.56 C31.45 98.9, 31.45 195.89, 37.42 256.06 M34.58 -0.02 C37.7 54.33, 38.47 107.37, 34.91 252.22 M33.82 252.95 C24.33 255.11, 14.38 254.39, 2.6 248.98 M35.71 252.51 C22.24 253.51, 7.56 253.31, 1.14 251.6 M2.4 255.76 C-3.34 162.61, -2.77 70.63, -1.61 2.72 M0.91 253.67 C-2.27 185.55, -1.78 120.71, 0.9 0.96" stroke="#ffffff" stroke-width="2" fill="none"></path></g><g stroke-linecap="round" transform="translate(858.9321495939712 228.79673594294127) rotate(95.0510687765688 17.54855209409743 45.93472561886142)"><path d="M0.19 1.62 L34.78 0.67 L35.46 92.25 L-0.16 94.82" stroke="none" stroke-width="0" fill="#ffffff"></path><path d="M-0.96 -1.6 C12.13 -2.41, 26.4 2.23, 36.52 3.68 M-0.98 -1.1 C11.9 -2.1, 24.16 0.44, 36.78 -0.3 M31.37 2.18 C29.67 26.94, 36.26 53.88, 31.69 93.6 M36.11 0 C36.47 17.72, 34.28 37.88, 35.3 92.62 M35.22 94.83 C28.99 94.15, 23.36 88.06, 3.91 88.97 M36.2 92.8 C26.12 92.5, 17.53 90.55, 1.28 92.82 M-1.7 94.04 C-2.35 63.62, -3.34 34.38, -1.48 1.54 M-0.85 90.93 C-1.28 69.33, 0.07 45.77, 1.49 1.52" stroke="#ffffff" stroke-width="2" fill="none"></path></g><g stroke-linecap="round" transform="translate(1004.7943425224948 58.83447912843485) rotate(1.533055768691366 17.54855209409743 126.40664353959369)"><path d="M-0.32 0.67 L35.46 0.38 L34.94 255.76 L-3.96 249.72" stroke="none" stroke-width="0" fill="#ffffff"></path><path d="M-1.11 -1.92 C12.87 3, 27.34 3.96, 36.06 0.41 M0.52 -1.63 C14.31 1.3, 27.48 0.08, 34.53 -1.85 M32.07 1.62 C33.6 74.73, 28.51 144.39, 32.18 251.77 M36.69 -1.29 C36.99 74.94, 37.34 151.67, 33.54 252.29 M36.16 255.06 C27.04 249.5, 17.7 250.43, -1.34 254.04 M35.47 253.55 C26.25 251.93, 16.39 254.09, 0.62 254.29 M-0.81 254.58 C0.14 156.75, 0.55 56.49, -1.39 1.82 M-0.2 253.71 C2.64 164.56, 2.95 75.63, 0.08 0.66" stroke="#ffffff" stroke-width="2" fill="none"></path></g><g stroke-linecap="round" transform="translate(21.717759414412285 25.675497323520176) rotate(0 195.284711973095 153.66896332792453)"><path d="M0.36 0.38 L390.41 2.95 L386.61 304.25 L0.85 308.89" stroke="none" stroke-width="0" fill="#ffffff"></path><path d="M-0.05 1.58 C102.38 4.33, 203.66 2.43, 392.14 -1.14 M0.82 0.53 C96.59 3.52, 190.89 2.62, 390.37 -1.08 M392.63 2.88 C383.98 110.19, 383.85 216.96, 390.53 308.8 M390.4 -0.53 C395.07 92.76, 393.54 183.96, 390.62 307.38 M392.08 305.11 C246.72 308.21, 97.55 310.61, -0.36 308.62 M391.23 306.63 C255.95 309.56, 120.2 309.87, 1.06 306.84 M-1.43 309.76 C0.04 199.53, -0.13 91.13, 1.52 -1.22 M0.8 308.19 C1.62 230.62, 0.61 152.3, -0.11 0.24" stroke="#ffffff" stroke-width="4" fill="none"></path></g><g stroke-linecap="round" transform="translate(486.37373251828285 56.78538054124283) rotate(0 17.54855209409743 92.13881544121205)"><path d="M-0.16 2.95 L31.14 -3.09 L35.95 185.83 L1.73 187.55" stroke="none" stroke-width="0" fill="#ffffff"></path><path d="M1.42 3.68 C9.81 -0.06, 20.39 -2.43, 32.89 1.05 M1.68 -0.3 C7.11 -2.17, 15.01 -2.18, 36.19 -1.86 M31.69 1.73 C34.14 63.2, 37.68 130.98, 35.1 188.21 M35.3 0.75 C32.76 40, 34.75 81.34, 36.58 184.81 M39 181.37 C21.25 184.83, 9.48 185.81, 1.86 185.03 M36.37 185.23 C23.9 185.33, 13.28 183, 1.09 183.78 M-1.48 185.82 C0.12 121.24, 3.94 52.02, -1.87 -0.49 M1.49 185.8 C-1.94 119.62, -2.2 53.68, 0.18 0.19" stroke="#ffffff" stroke-width="2" fill="none"></path></g><g stroke-linecap="round" transform="translate(536.3908420676798 1.959523945645742) rotate(89.63737332603682 17.54855209409743 73.71373308794546)"><path d="M-3.96 -3.09 L35.95 1.55 L36.82 150.7 L-0.69 147.4" stroke="none" stroke-width="0" fill="#ffffff"></path><path d="M0.96 0.41 C15.61 -2.6, 23.62 0.4, 31.85 2.83 M-0.57 -1.85 C11.79 -1.75, 25.35 -1.76, 36.1 1.43 M31.5 -1.28 C32.54 60.98, 32.59 121.84, 31.92 146.97 M33.18 -0.64 C35.47 38.9, 36.89 78.2, 36.22 148.73 M33.76 148.65 C27.32 149.12, 22.62 147.67, 1.47 149.71 M35.72 148.91 C28.52 146.91, 19.39 147.27, 1.09 146.44 M-1.71 149.67 C3.2 89.14, -0.78 33.75, 2.21 2.21 M0.09 148.24 C-2.35 94.85, -2.01 41.79, -0.08 1.47" stroke="#ffffff" stroke-width="2" fill="none"></path></g><g stroke-linecap="round" transform="translate(511.68359545724707 146.93483259284721) rotate(89.63737332603682 17.54855209409743 64.2278714721217)"><path d="M0.85 1.55 L36.82 3.28 L34.41 128.42 L1.1 129.84" stroke="none" stroke-width="0" fill="#ffffff"></path><path d="M2.7 -1.95 C11.55 0.97, 24.27 2.75, 36.92 3.37 M-0.34 -1.86 C11.09 -1.22, 20.99 2.08, 37.1 -1.7 M35.05 2.02 C32.79 48.04, 29.61 87.75, 33.63 128.87 M35.17 0.06 C34.12 43.92, 33.76 88.07, 33.18 130.41 M34.49 130.66 C28.98 129.42, 20.6 130.95, -2.43 131.01 M36.91 127.6 C23.98 128.48, 11.77 127.99, 1.68 127.72 M2.11 126.76 C-0.78 84.47, 3.31 43.69, 2.36 2.98 M-0.16 128.79 C0.06 80.33, -0.2 33.29, -1.98 -1.55" stroke="#ffffff" stroke-width="2" fill="none"></path></g><g stroke-linecap="round" transform="translate(528.6614629303986 223.83458526534832) rotate(89.63737332603682 17.54855209409743 64.2278714721217)"><path d="M1.73 3.28 L34.41 -0.03 L36.19 129.84 L3 129.95" stroke="none" stroke-width="0" fill="#ffffff"></path><path d="M-2.21 1.05 C7.64 3.17, 23.61 3.71, 34.49 -1.14 M1.09 -1.86 C8.28 2.08, 16.57 -1.05, 35.96 -1.8 M35.1 3.93 C31.89 33.96, 33.6 69.24, 36.61 124.63 M36.58 0.53 C36.31 35.72, 33.27 70.79, 33.65 127.79 M36.96 129.2 C24.96 131.13, 9.46 131.39, 1.91 129.7 M36.18 127.96 C23.06 127.17, 10.53 127.42, 0.77 127.6 M-1.87 127.96 C0.85 84.91, 1 39.92, 3.05 0.19 M0.18 128.65 C0.12 86.18, -1.77 39.41, 0.43 0.78" stroke="#ffffff" stroke-width="2" fill="none"></path></g><g stroke-linecap="round" transform="translate(569.6080844832904 182.88796371246008) rotate(164.3991621933848 17.54855209409743 64.2278714721217)"><path d="M-0.69 -0.03 L36.19 1.38 L38.1 129.95 L-0.97 131.38" stroke="none" stroke-width="0" fill="#ffffff"></path><path d="M-3.25 2.83 C10.64 3.18, 17.02 -1.32, 31.4 -0.69 M1 1.43 C9.26 -1.05, 15.39 -1.14, 34.46 -0.02 M31.92 -0.46 C33.63 45.44, 36.61 86.23, 33.82 128.59 M36.22 1.3 C35.09 40.9, 35.55 77.22, 35.71 128.15 M36.56 130.74 C20.21 131.14, 12.08 129.83, 2.96 132.09 M36.18 127.47 C27.74 127.54, 17.8 127.43, 1.12 129.51 M2.21 130.67 C3.56 98.33, 4.25 62.44, 1.62 -0.32 M-0.08 129.93 C-2.21 86.22, 0.19 47.85, 0.86 1.64" stroke="#ffffff" stroke-width="2" fill="none"></path></g><g stroke-linecap="round" transform="translate(579.8646552845912 66.53265721816206) rotate(201.09233950582671 17.54855209409743 69.13971993382552)"><path d="M1.1 1.38 L38.1 1.5 L34.12 141.21 L2.88 135.54" stroke="none" stroke-width="0" fill="#ffffff"></path><path d="M1.83 3.37 C10.84 -1.64, 19.2 -1.18, 31.37 2.18 M2 -1.7 C8.13 -2.3, 13.87 -0.53, 36.11 0 M33.63 0.41 C34.41 51.24, 31.62 110.27, 35.22 141.24 M33.18 1.95 C35.2 44.49, 37.27 90.02, 36.2 139.21 M32.67 140.83 C25.82 139.92, 15.68 142.31, -1.7 140.45 M36.77 137.54 C26.21 137.08, 16.91 138.99, -0.85 137.34 M2.36 141.26 C1.52 98.69, 0.09 58.4, 0.67 0.36 M-1.98 136.73 C0.54 96.24, 0.97 54.29, -0.34 -0.02" stroke="#ffffff" stroke-width="2" fill="none"></path></g><g stroke-linecap="round" transform="translate(659.8407865076169 63.34262851829408) rotate(0 17.54855209409743 126.40664353959369)"><path d="M3 1.5 L34.12 2.93 L37.97 250.07 L1.57 250.25" stroke="none" stroke-width="0" fill="#ffffff"></path><path d="M-0.61 -1.14 C9.31 -1.28, 22.29 1.59, 31.37 2 M0.87 -1.8 C12.4 0.57, 27.09 0.6, 37.06 -1.59 M36.32 -3.11 C32.55 73.07, 33.7 148.32, 35.96 254.64 M33.92 -0.54 C31.67 92.01, 32.06 185.28, 35.4 253.41 M37.01 254.06 C25.52 256.89, 8.33 255.44, -0.99 254.98 M35.87 251.96 C27.43 253.61, 16.66 251.62, -0.25 253.92 M2.47 252.97 C-1.1 162.73, -1.87 73.47, 0.31 -0.13 M0.35 253.44 C4.76 159.67, 3.78 63.85, 0.45 0.56" stroke="#ffffff" stroke-width="2" fill="none"></path></g><g stroke-linecap="round" transform="translate(709.8578960570121 8.516771922692897) rotate(101.59169195074101 17.54855209409743 73.71373308794546)"><path d="M-0.97 2.93 L37.97 -2.74 L36.67 144.86 L1.1 149.59" stroke="none" stroke-width="0" fill="#ffffff"></path><path d="M-3.7 -0.69 C9.76 2.38, 23.24 2.2, 37.96 4 M-0.64 -0.02 C8.55 0.63, 17.05 -0.96, 34.87 -0.73 M33.82 0.14 C36.34 48.72, 37.27 93.77, 37.69 143.6 M35.71 -0.31 C34.06 59.56, 33.33 117.99, 36.24 146.21 M38.05 151.06 C20.63 149.82, 8.57 149.82, -1.98 150.78 M36.22 148.48 C25.02 146.19, 16.39 148.23, 1.11 148.61 M1.62 147.11 C-1.57 92.59, -1.86 36.87, 2.95 -3.96 M0.86 149.07 C-0.97 114.58, -0.08 82.45, 1.5 0.75" stroke="#ffffff" stroke-width="2" fill="none"></path></g><g stroke-linecap="round" transform="translate(744.359178869754 185.59309049811554) rotate(152.8450254766057 17.54855209409743 64.2278714721217)"><path d="M2.88 -2.74 L36.67 -2.56 L36.19 130.62 L3.99 124.7" stroke="none" stroke-width="0" fill="#ffffff"></path><path d="M-3.72 2.18 C5.8 2.12, 21.92 4.12, 31.69 1.73 M1.01 0 C9.34 -1.58, 14.52 -0.72, 35.3 0.75 M35.22 2.96 C35.34 28.49, 36.87 48.65, 39 125.55 M36.2 0.93 C36.26 34.97, 37.03 67.25, 36.37 129.41 M33.39 130.63 C22.48 131.26, 9.88 132.45, -1.48 130 M34.25 127.52 C25.82 129.93, 18.14 130, 1.49 129.98 M0.67 128.82 C-0.66 89.15, 1.9 46.21, -3.09 0.85 M-0.34 128.44 C-0.56 85.63, 0.39 42.17, -0.49 1.46" stroke="#ffffff" stroke-width="2" fill="none"></path></g><g stroke-linecap="round" transform="translate(742.8066130588468 72.65238559567388) rotate(209.61070740826324 17.54855209409743 83.1231801208753)"><path d="M1.57 -2.56 L36.19 2.16 L39.09 162.49 L-1 169.21" stroke="none" stroke-width="0" fill="#ffffff"></path><path d="M-3.73 2 C12.78 3.61, 16.45 1.35, 31.5 -1.28 M1.96 -1.59 C10.26 -0.73, 21.18 0.75, 33.18 -0.64 M36.16 2.25 C37.8 46.62, 39.11 97.99, 33.76 167.47 M35.47 0.73 C38.07 46.12, 38.2 95.62, 35.72 167.72 M34.1 168.42 C19.4 169.98, 6.19 168.17, -1.71 168.49 M34.85 167.35 C23.82 167.1, 11.82 167.44, 0.09 167.06 M0.38 166.09 C2.39 113.74, -3.65 69.99, 1.55 1.73 M0.55 166.94 C2.07 103.51, 0.08 40.74, 1.44 -1.37" stroke="#ffffff" stroke-width="2" fill="none"></path></g><g stroke-linecap="round" transform="translate(1073.6428454901961 64.07981752312253) rotate(0.960230266738806 17.54855209409743 126.40664353959369)"><path d="M1.1 2.16 L39.09 -3.76 L34.1 255.77 L2.7 249.29" stroke="none" stroke-width="0" fill="#ffffff"></path><path d="M2.86 4 C9.04 1.38, 21.29 -1.63, 35.05 2.02 M-0.23 -0.73 C10.74 1.31, 19.15 -0.08, 35.17 0.06 M37.21 -3.11 C39.36 92.23, 35.1 190.16, 34.6 254.6 M36.02 -0.99 C36.9 88.4, 36.37 176.44, 36.57 252.12 M33.12 256.17 C21.18 254.74, 8.51 255.44, 2.11 251.12 M36.2 253.99 C27.7 254.72, 17.42 254.01, -0.16 253.15 M2.39 249.6 C-2.9 175.36, 0.86 97.93, 2.66 -0.56 M1.22 253.42 C-1.52 178.36, 0.04 100.42, 0.64 -1.04" stroke="#ffffff" stroke-width="2" fill="none"></path></g><g stroke-linecap="round" transform="translate(1131.5770050822957 59.29005632077178) rotate(342.68835389115355 17.54855209409743 126.40664353959369)"><path d="M3.99 -3.76 L34.1 2.96 L37.8 249.29 L1.12 255.01" stroke="none" stroke-width="0" fill="#ffffff"></path><path d="M-3.4 1.73 C8.69 -1.99, 24.51 1.32, 35.1 3.93 M0.21 0.75 C5.83 -0.38, 15.55 0.32, 36.58 0.53 M38.27 -2.36 C36.68 91.07, 37.27 181.94, 36.61 253.42 M36.13 0.77 C37.95 86.31, 38.92 169.54, 35.98 252.41 M33.62 254.36 C20.96 255.65, 12.35 251.71, -1.87 252.32 M36.59 254.34 C22.72 254.04, 10 253.56, 0.18 253.01 M-2.51 253.51 C-1.77 179.38, -0.37 102.58, -0.03 0.89 M-0.4 254 C-1.91 167.13, -2.44 82.64, 0.44 0.88" stroke="#ffffff" stroke-width="2" fill="none"></path></g><g stroke-linecap="round" transform="translate(1185.354360040421 59.58567613317064) rotate(1.3199456939224088 17.54855209409743 126.40664353959369)"><path d="M-1 2.96 L37.8 -3.52 L36.22 255.01 L-0.66 253.92" stroke="none" stroke-width="0" fill="#ffffff"></path><path d="M-3.59 -1.28 C13.99 1.72, 28.07 3.63, 31.92 -0.46 M-1.91 -0.64 C9.31 -0.2, 19.97 0.27, 36.22 1.3 M34.01 0.99 C38.61 53.43, 40.62 103.9, 36.29 254.67 M35.6 1.2 C39.19 59.8, 38.6 120.57, 35.98 252.01 M33.39 255.06 C23.74 251.39, 6.28 252.59, 2.21 255.02 M35.19 253.62 C22.34 253.68, 10.09 253.54, -0.08 254.29 M1.26 254.22 C5.83 201.42, 3.15 152.02, 1.12 2.44 M1.17 251.7 C1.64 166.45, 1.44 83.06, 1.62 -1.53" stroke="#ffffff" stroke-width="2" fill="none"></path></g><g stroke-linecap="round" transform="translate(1254.2016856653718 58.83447912843485) rotate(359.03294700559456 17.54855209409743 126.40664353959369)"><path d="M2.7 -3.52 L36.22 2.19 L34.44 253.92 L3.17 251.04" stroke="none" stroke-width="0" fill="#ffffff"></path><path d="M-0.05 2.02 C12.05 4.15, 20.92 -0.23, 33.63 0.41 M0.07 0.06 C13.34 0.76, 24.83 1.52, 33.18 1.95 M34.6 1.79 C35.23 58.1, 34.91 116.85, 33.12 254.89 M36.57 -0.69 C37.26 87.5, 37.26 175.01, 36.46 252.21 M37.21 251.12 C21.34 252.72, 13.54 255.42, 2.36 255.79 M34.94 253.15 C22.08 253.29, 8.61 254.57, -1.98 251.27 M2.66 252.26 C-1.62 172.46, -0.47 92.76, 1.22 -0.79 M0.64 251.77 C-2.51 159.34, -1.33 62.59, -0.41 1.2" stroke="#ffffff" stroke-width="2" fill="none"></path></g><g stroke-linecap="round" transform="translate(1299.061962945374 12.008139693335579) rotate(91.58614968841856 17.54855209409743 69.02562692951915)"><path d="M1.12 2.19 L34.44 1.11 L38.26 136.28 L-3.29 136.96" stroke="none" stroke-width="0" fill="#ffffff"></path><path d="M0 3.93 C6.22 -0.81, 17.34 0.06, 36.61 -3.83 M1.48 0.53 C10.53 1.28, 16.89 1.93, 33.65 -0.67 M36.96 0.75 C36.14 47.93, 32.25 93.84, 37.01 139.3 M36.18 -0.5 C38.69 50.63, 39.28 102.49, 35.87 137.2 M33.22 137.56 C24.81 139.97, 12.45 140.73, 3.05 138.24 M35.28 138.24 C23.06 139.64, 9.21 136.62, 0.43 138.83 M-0.03 139.15 C-0.88 93.68, -0.76 42.33, 2.93 2.88 M0.55 139.13 C0.91 104.23, -1.59 75.64, 1.35 -1.76" stroke="#ffffff" stroke-width="2" fill="none"></path></g><g stroke-linecap="round" transform="translate(1288.8715978971104 158.28492712356547) rotate(89.63737332603682 17.54855209409743 54.86763471028098)"><path d="M-0.66 1.11 L38.26 -1.77 L31.81 108.64 L-3.95 106.97" stroke="none" stroke-width="0" fill="#ffffff"></path><path d="M-3.18 -0.46 C10.84 -0.27, 26.12 -4.52, 33.82 0.14 M1.13 1.3 C8.73 1.77, 19.83 -0.86, 35.71 -0.31 M36.56 2.28 C33.69 41.51, 38.03 79.17, 38.05 113.37 M36.18 -0.99 C37.97 27.51, 37.06 55.64, 36.22 110.79 M37.31 111.95 C28.41 112.63, 20.06 109.84, 1.62 109.42 M35.02 111.21 C22 108.26, 13.29 110.58, 0.86 111.37 M1.38 112.74 C1.52 77.72, 2.95 50.53, -2.74 1.57 M1.99 107.86 C-1.1 85.32, 0.75 56.19, 0.56 1.1" stroke="#ffffff" stroke-width="2" fill="none"></path></g><g stroke-linecap="round" transform="translate(1785.198258806382 58.83447912843485) rotate(0 17.54855209409743 126.40664353959369)"><path d="M3.17 -1.77 L31.81 -1.1 L31.14 250.05 L2.81 253.25" stroke="none" stroke-width="0" fill="#ffffff"></path><path d="M-1.46 0.41 C15.49 -3.75, 26.67 0.22, 35.22 2.96 M-1.91 1.95 C10.01 -1.13, 23.54 -0.76, 36.2 0.93 M33.12 2.07 C38.15 81.59, 39 164.1, 33.71 254.58 M36.46 -0.6 C37.95 68.87, 38.24 139.98, 34.41 252.05 M37.45 255.79 C28.05 253.39, 16.53 252.88, 0.67 253.18 M33.12 251.27 C24.66 254.11, 14.23 254.97, -0.34 252.8 M1.22 252.02 C0.96 172.37, -3.64 88.54, -2.08 0.89 M-0.41 254.01 C-3 161.86, -3.64 74.66, -0.27 0.45" stroke="#ffffff" stroke-width="2" fill="none"></path></g><g stroke-linecap="round" transform="translate(1782.7837188063495 8.50276392278829) rotate(89.63737332603682 17.54855209409743 73.71373308794546)"><path d="M-3.29 -1.1 L31.14 -2.76 L37.91 147.87 L1.85 148.64" stroke="none" stroke-width="0" fill="#ffffff"></path><path d="M1.51 -3.83 C8.85 0.06, 20.38 2.89, 36.16 2.25 M-1.45 -0.67 C13.42 -0.99, 26.72 0.25, 35.47 0.73 M37.01 1.24 C36.26 56.28, 31.6 107.47, 34.1 149.6 M35.87 -0.85 C38.69 38, 36.72 72.94, 34.85 148.53 M38.14 147.62 C24.25 147.63, 10.83 148.31, 0.38 147.27 M35.52 148.2 C22.85 148.52, 8.52 146.87, 0.55 148.12 M2.93 150.3 C-3.85 93.72, -3.67 37.95, 2.16 3.99 M1.35 145.67 C1.3 118.15, 0.41 87.24, 1.58 -0.89" stroke="#ffffff" stroke-width="2" fill="none"></path></g><g stroke-linecap="round" transform="translate(1393.4703877160264 64.51398182910407) rotate(11.7881832991075 17.54855209409743 126.40664353959369)"><path d="M-3.95 -2.76 L37.91 0.44 L36.94 254.02 L2.82 254.92" stroke="none" stroke-width="0" fill="#ffffff"></path><path d="M-1.28 0.14 C11.02 3.64, 22.85 2.92, 37.69 -3.83 M0.61 -0.31 C15.06 1.17, 28.29 0.97, 36.24 -1.21 M37.5 2.95 C35.67 93.74, 36.25 185.7, 33.49 255.54 M36.01 0.86 C35.99 65.74, 36.48 133.89, 35.99 253.77 M36.72 252.5 C22.63 253.21, 9.2 252.69, 2.95 248.86 M35.96 254.45 C26.94 253.07, 20.01 253.78, 1.5 253.56 M-2.23 254.09 C-5.09 184.01, -1.25 116.68, -3.05 -0.81 M0.45 253.7 C-3.04 158.71, -1.49 62.99, -1.34 -0.44" stroke="#ffffff" stroke-width="2" fill="none"></path></g><g stroke-linecap="round" transform="translate(1463.6913469340234 63.95221415536298) rotate(342.68835389115355 17.54855209409743 126.40664353959369)"><path d="M2.81 0.44 L36.94 1.21 L37.92 254.92 L-2.15 256.76" stroke="none" stroke-width="0" fill="#ffffff"></path><path d="M0.13 2.96 C8.23 2.23, 16.94 -3.85, 39 -2.9 M1.1 0.93 C9.73 0.84, 19.85 -1.11, 36.37 0.95 M33.71 1.77 C37.32 85.47, 36.52 170.15, 33.9 254.07 M34.41 -0.76 C37.2 65.95, 38.3 131.07, 36.31 254.05 M35.77 253.18 C24.79 252.6, 16.65 248.8, -3.09 253.67 M34.75 252.8 C23.76 254.08, 12.82 254.14, -0.49 254.28 M-2.08 253.7 C4.57 162.03, -0.24 63.96, 2.4 2.2 M-0.27 253.26 C0.14 198.5, -2.48 145.18, -1.61 -1.12" stroke="#ffffff" stroke-width="2" fill="none"></path></g><g stroke-linecap="round" transform="translate(1413.217305007227 234.47623864361458) rotate(95.0510687765688 17.54855209409743 45.93472561886142)"><path d="M1.85 1.21 L37.92 2.11 L32.95 95.81 L3.12 89.99" stroke="none" stroke-width="0" fill="#ffffff"></path><path d="M1.06 2.25 C13.25 -4.35, 25.21 -3.42, 33.76 1.23 M0.37 0.73 C11.14 -1.54, 21.26 0.63, 35.72 1.48 M34.1 2.17 C32.34 39.25, 32.84 73.34, 33.39 94.12 M34.85 1.11 C35.43 33.6, 35.81 66.36, 35.19 92.68 M35.48 91.71 C27.79 87.98, 11.5 92.79, 1.55 93.6 M35.65 92.56 C23.19 92.61, 7.8 93.33, 1.44 90.5 M2.16 95.86 C-2.58 59.69, 4.14 32.22, -3.52 1.12 M1.58 90.98 C-1.34 58.72, -1.67 25.29, 1.41 0.22" stroke="#ffffff" stroke-width="2" fill="none"></path></g><g stroke-linecap="round" transform="translate(1665.161480138684 64.55460719530674) rotate(0 17.54855209409743 126.40664353959369)"><path d="M2.82 2.11 L32.95 3.94 L38.22 250.94 L0.52 255.86" stroke="none" stroke-width="0" fill="#ffffff"></path><path d="M2.6 -3.83 C17.04 -3.3, 24.92 0.83, 34.49 2.2 M1.14 -1.21 C13.44 0.7, 24.95 1.22, 36.91 -0.85 M33.49 2.72 C32.88 90.85, 32.69 181.01, 36.81 251.44 M35.99 0.96 C35.8 65.25, 34.67 128.68, 34.97 253.09 M38.04 248.86 C21.16 253.64, 14.95 254.51, 3.28 252.13 M36.6 253.56 C24.11 254.52, 15.53 251.68, 0.79 251.53 M-3.05 252 C0.18 172.24, -5.08 88.18, 1.78 -0.53 M-1.34 252.37 C-4.85 168.82, -2.11 87.26, 0.75 0.49" stroke="#ffffff" stroke-width="2" fill="none"></path></g><g stroke-linecap="round" transform="translate(1615.1443705892889 9.728750599705563) rotate(258.408308049259 17.54855209409743 73.71373308794546)"><path d="M-2.15 3.94 L38.22 -1.88 L35.62 150.48 L3.27 147.92" stroke="none" stroke-width="0" fill="#ffffff"></path><path d="M3.91 -2.9 C11.16 1.9, 24.4 2.87, 36.96 0.75 M1.28 0.95 C12.44 1.9, 25.45 -0.43, 36.18 -0.5 M33.62 1.54 C31.93 54.47, 35.75 102.76, 33.22 146.94 M36.59 1.52 C36.82 53.19, 36.57 105.09, 35.28 147.62 M32 148.28 C26.26 148.46, 17.59 146.05, -0.03 148.52 M34.61 148.89 C24.8 146.32, 12.4 146.41, 0.55 148.51 M2.96 150.13 C-0.75 89.62, 4.97 28.91, 1.11 3.17 M-1.98 146.05 C3.83 109.95, 3.35 72.64, 1.41 1.05" stroke="#ffffff" stroke-width="2" fill="none"></path></g><g stroke-linecap="round" transform="translate(1580.6430877765488 186.8050691751314) rotate(207.15497452339426 17.54855209409743 64.2278714721217)"><path d="M3.12 -1.88 L35.62 3.05 L38.36 128.95 L-2.49 132.41" stroke="none" stroke-width="0" fill="#ffffff"></path><path d="M-1.34 1.23 C6.56 2.71, 16.2 1.26, 36.56 2.28 M0.62 1.48 C10.21 -1.19, 17.88 -0.83, 36.18 -0.99 M33.39 2.25 C36.26 47.62, 32.27 98.13, 37.31 130.67 M35.19 0.81 C36.85 46.44, 37.19 92.4, 35.02 129.93 M36.65 130.18 C31.31 127.92, 20.95 129.7, 1.38 131.46 M36.54 127.08 C24.04 127.69, 11.96 130.05, 1.99 126.58 M-3.52 129.57 C0.29 92.47, -0.79 60.97, -1.77 -3.29 M1.41 128.68 C3.46 94.04, 3.95 59.48, -1.07 1.97" stroke="#ffffff" stroke-width="2" fill="none"></path></g><g stroke-linecap="round" transform="translate(1582.1956535874542 73.86436427268791) rotate(150.38929259173676 17.54855209409743 83.1231801208753)"><path d="M0.52 3.05 L38.36 0.49 L32.61 170.2 L0 169.31" stroke="none" stroke-width="0" fill="#ffffff"></path><path d="M-0.61 2.2 C9.85 0.53, 17.43 2.07, 32.67 2.55 M1.82 -0.85 C13.29 -1.02, 25.49 -1.51, 36.77 -0.74 M37.21 -1.69 C31.81 55.79, 35.89 114.78, 37.45 169.22 M34.94 0.34 C35.44 62.72, 35.18 126.54, 33.12 164.7 M38.37 165.56 C23.79 167.65, 13.92 169.55, 1.5 165.27 M35.88 164.97 C22.55 166.85, 10.9 163.88, -0.5 167.73 M2.19 165.59 C4.04 108.3, 1.15 40.74, -1.1 -3.95 M0.92 166.85 C-0.92 128.91, -3.41 91.44, 1.56 -0.94" stroke="#ffffff" stroke-width="2" fill="none"></path></g><g stroke-linecap="round"><g transform="translate(93.10206638992895 74.20389851976597) rotate(358.40313965635875 54.175173815950984 114.5418798379335)" fill-rule="evenodd"><path d="M0.43 -2.32 L-48.77 57.96 L82.43 62.31 L14.74 132.65 L75.06 127.18 L7.46 233.89 L160.12 80.39 L79.09 83.64 L154.3 10.12 L2.92 0.09" stroke="none" stroke-width="0" fill="#e03131" fill-rule="evenodd"></path><path d="M1.86 0.75 C-15.74 20.71, -36.68 38.83, -49.64 55.25 M1.09 -0.5 C-17.21 18.76, -35.89 39.2, -50.78 53.15 M-53.42 53.51 C-1.54 60.09, 46.31 63.61, 85.45 61.91 M-51.36 54.19 C-6.02 57.65, 37.7 57.26, 82.83 62.49 M82.37 62.81 C62.04 89.15, 39.23 109.85, 18.53 136.48 M82.95 62.8 C69.51 75.61, 51.56 95.61, 16.96 131.84 M16.72 136.77 C34.56 129.6, 55.99 128.01, 76.13 133.6 M17.02 134.65 C34.19 134.32, 56.5 130.53, 79.16 132.32 M82.86 130.8 C55.77 167.54, 26.18 205.08, 11.1 227.22 M80.28 131.25 C57.87 160.16, 36.34 188.88, 8.33 229.85 M11.15 232.33 C57.96 182.95, 106.17 142.2, 158.31 83.71 M8.21 230.34 C57.46 183.56, 102.75 135.57, 161.77 83.54 M157.45 79.62 C140.28 80.33, 125.73 81.35, 83.2 84.2 M160.54 80.67 C132.82 82.2, 101.96 81.78, 83.84 83.03 M79.38 84.04 C102.69 59.45, 126.68 33.14, 151.82 10.04 M83.26 82.04 C96.09 64.09, 114.98 48.14, 155.17 7.39 M152.83 8.67 C98.62 8.23, 50.86 4.59, -0.85 -3.24 M153.03 10.54 C95.64 0.37, 35.58 -0.28, -0.56 -1.94 M0 0 C0 0, 0 0, 0 0 M0 0 C0 0, 0 0, 0 0" stroke="#e03131" stroke-width="4" fill="none"></path></g></g><mask></mask><g stroke-linecap="round"><g transform="translate(262.56495110248034 76.4290764855823) rotate(358.40313965635875 41.26657044494186 33.15623692257168)" fill-rule="evenodd"><path d="M-2.15 1.71 L-53.21 57.34 L79.37 65.68 L139.36 5.68 L1.88 0.8" stroke="none" stroke-width="0" fill="#e03131" fill-rule="evenodd"></path><path d="M1.47 2.28 C-21.64 23.35, -37.05 42.63, -52.67 61.62 M1.09 -0.99 C-12.01 13.91, -27.23 28.72, -54.5 59.05 M-53.41 60.2 C-17.6 62.93, 18.82 61.77, 84.66 63.98 M-55.7 59.46 C-13.67 58.18, 32.66 62.5, 83.9 65.94 M84.42 67.3 C100 47.29, 116.89 35.41, 134.93 10.25 M85.03 62.42 C95.13 52.07, 109.87 35.7, 138.24 9.78 M135.9 5.39 C97.5 4.44, 56.79 8.75, 0.44 1.85 M136.6 10.65 C93.65 6.33, 46.89 5.92, 1.63 0.25 M0 0 C0 0, 0 0, 0 0 M0 0 C0 0, 0 0, 0 0" stroke="#e03131" stroke-width="4" fill="none"></path></g></g><mask></mask><g stroke-linecap="round"><g transform="translate(212.00278454190084 209.77665058391085) rotate(358.40313965635875 61.567850148020625 -25.00320206825586)" fill-rule="evenodd"><path d="M2.41 -0.65 L47.61 -49.91 L125.75 -52.9 L76.84 1 L3.26 1.09" stroke="none" stroke-width="0" fill="#e03131" fill-rule="evenodd"></path><path d="M-2.43 2.55 C17.88 -15.69, 35.27 -29.65, 49.58 -49.11 M1.68 -0.74 C14.32 -14.46, 28.79 -26.66, 50.44 -52.22 M53.64 -48.31 C75.28 -51.5, 94.8 -51.61, 124.74 -49.54 M49.31 -52.83 C74.24 -51.15, 97.21 -49.86, 123.72 -49.92 M125.57 -50.88 C111.26 -29.89, 89.51 -14.78, 72.39 1.29 M123.57 -48.42 C109.03 -34.85, 90.84 -14.25, 74.62 0.75 M73.86 -3.76 C43.77 1.7, 18.56 0.66, 1.21 2.82 M76.51 -0.74 C48.78 3.13, 23.71 1.78, -1.24 1.98 M0 0 C0 0, 0 0, 0 0 M0 0 C0 0, 0 0, 0 0" stroke="#e03131" stroke-width="4" fill="none"></path></g></g><mask></mask></svg>